<svg width="60" height="60" viewBox="0 0 60 60" fill="none" xmlns="http://www.w3.org/2000/svg">
<path fill-rule="evenodd" clip-rule="evenodd" d="M26.1328 1.15996C27.07 0.63418 28.2237 0.63418 29.1595 1.15996C33.79 3.75824 47.7244 11.5792 52.3561 14.1775C53.2933 14.7018 53.8701 15.6732 53.8701 16.7248C53.8701 21.9212 53.8701 37.562 53.8701 42.7586C53.8701 43.81 53.2933 44.7814 52.3561 45.3071C47.7256 47.9054 33.7914 55.7264 29.1595 58.3246C28.2225 58.8504 27.0686 58.8504 26.1328 58.3246C21.5023 55.7264 7.56812 47.9054 2.93624 45.3071C2.00046 44.7814 1.42358 43.8114 1.42358 42.76C1.42358 37.5634 1.42358 21.9226 1.42358 16.7261C1.42358 15.6746 2.00046 14.7032 2.93765 14.1775C7.56671 11.5792 21.5037 3.75824 26.1328 1.15996Z" fill="#283593"/>
<path fill-rule="evenodd" clip-rule="evenodd" d="M1.84312 44.0981C1.47608 43.6068 1.42358 43.1404 1.42358 42.5126C1.42358 37.3464 1.42358 21.7954 1.42358 16.6278C1.42358 15.5818 1.99905 14.6161 2.93343 14.0945C7.54733 11.5114 21.4347 3.7359 26.0486 1.15137C26.983 0.628404 28.2486 0.639497 29.183 1.16247C33.797 3.74543 47.6373 11.4548 52.2512 14.0378C52.6239 14.2476 52.9083 14.5001 53.1622 14.8326L1.84312 44.0981Z" fill="#5C6BC0"/>
<path fill-rule="evenodd" clip-rule="evenodd" d="M27.6468 10.4238C38.3115 10.4238 46.9693 19.0796 46.9693 29.7418C46.9693 40.404 38.3115 49.0598 27.6468 49.0598C16.9823 49.0598 8.32446 40.404 8.32446 29.7418C8.32446 19.0796 16.9823 10.4238 27.6468 10.4238ZM27.6468 20.0827C32.9784 20.0827 37.3081 24.4101 37.3081 29.7418C37.3081 35.0723 32.9784 39.4009 27.6468 39.4009C22.3152 39.4009 17.9856 35.0723 17.9856 29.7418C17.9856 24.4101 22.3138 20.0827 27.6468 20.0827Z" fill="white"/>
<path fill-rule="evenodd" clip-rule="evenodd" d="M53.1594 14.8457C53.8716 15.5123 53.8579 16.5168 53.8579 17.3074C53.8579 22.544 53.8136 37.4382 53.8702 42.6748C53.8758 43.2212 53.695 43.7966 53.4244 44.2299L27.0852 29.7413L53.1594 14.8457Z" fill="#3949AB"/>
<path fill-rule="evenodd" clip-rule="evenodd" d="M41.4485 24.2217H42.8286V35.2604H41.4485V24.2217ZM45.5891 24.2217H46.9693V35.2604H45.5891V24.2217Z" fill="white"/>
<path fill-rule="evenodd" clip-rule="evenodd" d="M38.6882 31.122H49.7296V32.5018H38.6882V31.122ZM38.6882 26.9824H49.7296V28.3623H38.6882V26.9824Z" fill="white"/>
</svg>
