<svg width="60" height="45" viewBox="0 0 60 45" fill="none" xmlns="http://www.w3.org/2000/svg">
<path d="M51.6509 25.8403C49.553 25.852 47.7365 26.3562 46.2129 27.1067C45.6504 25.9927 45.0878 25.0194 44.994 24.2924C44.8886 23.4481 44.7597 22.9321 44.8886 21.9236C45.0175 20.9152 45.6035 19.4845 45.6035 19.3673C45.5918 19.2617 45.4746 18.7458 44.2674 18.7341C43.0603 18.7223 42.0172 18.9686 41.9 19.2852C41.7828 19.6018 41.5484 20.3288 41.3961 21.0793C41.1851 22.1816 38.9818 26.0865 37.7278 28.1386C37.3176 27.3412 36.966 26.6377 36.8957 26.0748C36.7902 25.2305 36.6613 24.7145 36.7902 23.7061C36.9191 22.6976 37.5051 21.267 37.5051 21.1497C37.4934 21.0442 37.3762 20.5282 36.1691 20.5165C34.9619 20.5047 33.9189 20.751 33.8017 21.0676C33.6845 21.3842 33.5555 22.1347 33.2977 22.8618C33.0516 23.5888 30.1217 30.1087 29.3599 31.809C28.9731 32.6768 28.6332 33.3686 28.3871 33.8377C28.141 34.3067 28.3754 33.8729 28.352 33.9198C28.141 34.3185 28.0238 34.5413 28.0238 34.5413V34.553C27.8597 34.8462 27.6839 35.1276 27.6019 35.1276C27.5433 35.1276 27.4261 34.3419 27.6253 33.2631C28.059 30.9999 29.1138 27.4702 29.102 27.3412C29.102 27.2826 29.3013 26.6611 28.4223 26.3445C27.5667 26.0279 27.262 26.5556 27.1917 26.5556C27.1214 26.5556 27.0628 26.7432 27.0628 26.7432C27.0628 26.7432 28.0121 22.7679 25.2462 22.7679C23.5117 22.7679 21.1209 24.6559 19.9372 26.3797C19.1871 26.7901 17.5932 27.6579 15.9056 28.5842C15.261 28.936 14.593 29.3113 13.9601 29.6514L13.8312 29.5106C10.4793 25.9341 4.27955 23.4012 4.53739 18.5933C4.63115 16.8461 5.24057 12.2376 16.4447 6.65584C25.6213 2.08254 32.9696 3.33727 34.247 6.12816C36.0636 10.1151 30.3209 17.5262 20.781 18.5933C17.1479 19.0038 15.2375 17.5966 14.757 17.0689C14.2531 16.5178 14.1828 16.4943 13.9952 16.5998C13.6905 16.764 13.878 17.2565 13.9952 17.5497C14.2765 18.2885 15.4485 19.6018 17.4409 20.2585C19.1871 20.8331 23.4531 21.1497 28.6098 19.1562C34.3877 16.9165 38.8998 10.7015 37.5754 5.50666C36.2277 0.21804 27.4613 -1.51747 19.1754 1.42586C14.2414 3.18482 8.89714 5.92881 5.05306 9.52882C0.482347 13.7972 -0.244279 17.5262 0.0604347 19.0741C1.12693 24.5973 8.73307 28.1973 11.7802 30.8592C11.6279 30.9413 11.4872 31.0233 11.3583 31.0937C9.83473 31.8442 4.03344 34.8813 2.58019 38.0944C0.939418 41.7296 2.83802 44.3446 4.10376 44.6963C8.01816 45.7869 12.0263 43.8286 14.1945 40.6038C16.3509 37.3791 16.0931 33.1927 15.0969 31.2813L15.0617 31.211L16.2572 30.5074C17.0307 30.0501 17.7925 29.6279 18.4605 29.2644C18.0854 30.2846 17.8159 31.4924 17.6753 33.2514C17.5112 35.3152 18.355 37.9888 19.4684 39.0442C19.9606 39.5015 20.5466 39.5133 20.9099 39.5133C22.1991 39.5133 22.7851 38.4462 23.4297 37.168C24.2266 35.6084 24.9298 33.8025 24.9298 33.8025C24.9298 33.8025 24.0508 38.6924 26.4534 38.6924C27.3323 38.6924 28.2113 37.555 28.6098 36.9686V36.9804C28.6098 36.9804 28.6332 36.9452 28.6801 36.8631C28.7739 36.7224 28.8208 36.6403 28.8208 36.6403V36.6168C29.1724 36.0071 29.9576 34.6116 31.1296 32.3015C32.6414 29.323 34.0947 25.594 34.0947 25.594C34.0947 25.594 34.2353 26.5087 34.6689 28.0097C34.9268 28.9009 35.4893 29.8742 35.9229 30.824C35.5713 31.3165 35.3604 31.5979 35.3604 31.5979L35.3721 31.6097C35.0908 31.9849 34.7744 32.3836 34.4463 32.7823C33.2508 34.2129 31.821 35.8429 31.6335 36.312C31.4108 36.8631 31.4577 37.2735 31.8913 37.6019C32.2078 37.8364 32.7703 37.8833 33.368 37.8364C34.4463 37.766 35.1963 37.4963 35.5713 37.3322C36.1573 37.1211 36.8254 36.8045 37.47 36.3354C38.6419 35.4677 39.3568 34.2364 39.2865 32.5947C39.2514 31.6918 38.9584 30.8005 38.5951 29.9562C38.7005 29.8038 38.806 29.6514 38.9115 29.4872C40.7632 26.7784 42.193 23.7999 42.193 23.7999C42.193 23.7999 42.3337 24.7145 42.7673 26.2155C42.99 26.9777 43.4353 27.8103 43.8338 28.6312C42.0993 30.05 41.0093 31.6918 40.6343 32.7706C39.9428 34.7641 40.4819 35.667 41.5016 35.8781C41.9586 35.9719 42.6149 35.7608 43.1072 35.5497C43.7166 35.3504 44.4549 35.0103 45.1347 34.5061C46.3067 33.6383 47.4318 32.4305 47.3732 30.8005C47.338 30.0501 47.1388 29.3113 46.8692 28.6077C48.3459 27.9979 50.2562 27.6461 52.6822 27.9393C57.8975 28.5491 58.9289 31.809 58.7296 33.1693C58.5304 34.5295 57.4404 35.28 57.0771 35.5146C56.7138 35.7374 56.5966 35.8195 56.6318 35.9836C56.6787 36.2299 56.8427 36.2181 57.1592 36.1712C57.5928 36.1009 59.9016 35.0572 59.9954 32.5478C60.136 29.323 57.0771 25.8051 51.6509 25.8403ZM11.4286 39.4077C9.70581 41.2957 7.27982 42.011 6.24848 41.4012C5.1351 40.7563 5.56873 37.9771 7.69001 35.9719C8.97918 34.7523 10.6551 33.6266 11.7568 32.9347C12.0029 32.7823 12.3779 32.5595 12.8233 32.2898C12.8936 32.2429 12.9405 32.2194 12.9405 32.2194C13.0225 32.1725 13.1163 32.1139 13.21 32.0553C13.9952 34.9165 13.2452 37.426 11.4286 39.4077ZM24.0274 30.8357C23.4297 32.3015 22.1639 36.0657 21.4021 35.8546C20.7458 35.6787 20.3474 32.8292 21.2732 30.0149C21.742 28.596 22.7382 26.9074 23.3242 26.2507C24.2735 25.1953 25.3048 24.8435 25.5627 25.2774C25.8674 25.8403 24.4024 29.9211 24.0274 30.8357ZM34.4228 35.8077C34.165 35.9367 33.9306 36.0305 33.8251 35.9602C33.7431 35.9133 33.9306 35.7374 33.9306 35.7374C33.9306 35.7374 35.2315 34.3419 35.7471 33.697C36.0401 33.3217 36.3917 32.8878 36.7668 32.3953V32.5361C36.7668 34.2247 35.1494 35.3504 34.4228 35.8077ZM42.4391 33.9784C42.2516 33.8377 42.2751 33.4038 42.9079 32.0435C43.154 31.5041 43.7166 30.6012 44.6893 29.7452C44.8065 30.097 44.8769 30.437 44.8651 30.7536C44.8534 32.8644 43.3533 33.6501 42.4391 33.9784Z" fill="#CF649A"/>
</svg>
