<svg width="48" height="48" viewBox="0 0 48 48" fill="none" xmlns="http://www.w3.org/2000/svg">
<path d="M16.2236 5.9501C14.1195 4.01663 10.8851 4.01663 8.78097 5.9501C8.6948 6.02928 8.6028 6.1213 8.48334 6.24078L6.68836 8.03577C4.88213 9.842 4.12389 12.4458 4.67802 14.9394C7.82196 29.0871 18.871 40.1362 33.0188 43.2801C35.5123 43.8343 38.1161 43.076 39.9224 41.2698L41.7172 39.475C41.8368 39.3554 41.9288 39.2634 42.008 39.1772C43.9415 37.073 43.9415 33.8387 42.008 31.7345C41.9288 31.6483 41.8368 31.5563 41.7172 31.4367L38.7787 28.4982C36.7385 26.458 33.6574 25.8745 31.0125 27.0274C29.4983 27.6875 27.7344 27.3534 26.5664 26.1854L21.7728 21.3918C20.6047 20.2238 20.2707 18.4599 20.9307 16.9457C22.0837 14.3007 21.5002 11.2197 19.46 9.17947L16.5213 6.24081C16.4018 6.12131 16.3098 6.02929 16.2236 5.9501Z" fill="#2D264B"/>
</svg>
