<svg width="48" height="48" viewBox="0 0 48 48" fill="none" xmlns="http://www.w3.org/2000/svg">
<path d="M16.2237 5.9501C14.1195 4.01663 10.8852 4.01663 8.781 5.9501C8.69483 6.02928 8.60283 6.1213 8.48337 6.24078L6.68839 8.03577C4.88216 9.842 4.12392 12.4458 4.67805 14.9394C7.82199 29.0871 18.8711 40.1362 33.0188 43.2801C35.5123 43.8343 38.1162 43.076 39.9224 41.2698L41.7172 39.475C41.8368 39.3554 41.9289 39.2634 42.0081 39.1772C43.9415 37.073 43.9415 33.8387 42.0081 31.7345C41.9289 31.6483 41.8368 31.5563 41.7172 31.4367L38.7787 28.4982C36.7385 26.458 33.6574 25.8745 31.0125 27.0274C29.4983 27.6875 27.7344 27.3534 26.5664 26.1854L21.7728 21.3918C20.6048 20.2238 20.2707 18.4599 20.9308 16.9457C22.0837 14.3007 21.5002 11.2197 19.46 9.17947L16.5213 6.24081C16.4019 6.12131 16.3098 6.02929 16.2237 5.9501Z" fill="#FAFAFA"/>
</svg>
