<svg width="60" height="55" viewBox="0 0 60 55" fill="none" xmlns="http://www.w3.org/2000/svg">
<path d="M7.72551 35.454C7.77676 35.5703 7.83469 35.6777 7.89707 35.7851C7.92603 35.8478 7.96614 35.9127 8.00178 35.9708C8.05971 36.0872 8.12209 36.1991 8.18225 36.3109L8.53204 36.9016C8.59665 37.0112 8.65903 37.1186 8.73256 37.226C8.8551 37.4363 8.99991 37.6422 9.12691 37.8525C9.18484 37.9398 9.23831 38.027 9.30292 38.1143C9.548 38.4969 9.77079 38.8146 10.0092 39.1233C10.1785 39.3538 10.3478 39.5798 10.5305 39.8058C10.5907 39.8908 10.6575 39.9758 10.7199 40.0608L11.2123 40.6604C11.2724 40.7298 11.3326 40.8104 11.3972 40.8819C11.6156 41.146 11.8473 41.401 12.079 41.6606C12.079 41.665 12.0857 41.6695 12.0901 41.6762C12.3775 42.0387 12.6872 42.3609 13.0259 42.6473L13.0348 42.6562C13.213 42.8397 13.3912 43.0209 13.5806 43.1999L13.8056 43.4169C14.053 43.6496 14.3003 43.8801 14.5609 44.1038C14.5654 44.1038 14.5676 44.1083 14.5721 44.1105L14.6991 44.2224C14.9263 44.4215 15.1558 44.6184 15.3897 44.8019L15.6682 45.0368C15.8576 45.189 16.0537 45.3322 16.2475 45.4821L16.5505 45.7147C16.7577 45.8714 16.9783 46.0235 17.1899 46.1757C17.2679 46.2316 17.3459 46.2875 17.4261 46.339L17.4907 46.3904L18.1168 46.8021L18.3841 46.9811C18.7116 47.1914 19.0369 47.3883 19.3622 47.5852C19.4558 47.6322 19.5494 47.6837 19.6362 47.7374C19.8769 47.8761 20.1264 48.017 20.3693 48.1446C20.5029 48.2206 20.6411 48.2855 20.7792 48.3549C20.9463 48.4489 21.1201 48.5406 21.2983 48.6346C21.3473 48.6502 21.3874 48.6659 21.4275 48.6883L21.4365 48.6793C21.51 48.7129 21.579 48.7487 21.6503 48.7845C21.9177 48.9187 22.1962 49.0463 22.4858 49.1715C22.5393 49.1939 22.5972 49.2163 22.6552 49.2476C22.976 49.3886 23.2968 49.5228 23.6288 49.6526C23.7045 49.675 23.7847 49.713 23.8627 49.7421C24.1635 49.8562 24.4732 49.9725 24.7806 50.0822L24.892 50.1224C25.2329 50.2388 25.5693 50.3507 25.9169 50.4558C25.9971 50.4782 26.0795 50.5073 26.1642 50.5297C26.5185 50.6371 26.8616 50.7646 27.2203 50.8317C50.1082 55 56.7587 37.0806 56.7587 37.0806C51.171 44.3522 41.2543 46.2696 31.8634 44.1351C31.5158 44.0546 31.1682 43.9427 30.8162 43.8398C30.3193 43.6986 29.8268 43.5426 29.3391 43.3722L29.5507 43.4371L29.4126 43.3834C29.1096 43.2804 28.8177 43.1663 28.5214 43.0522C28.4489 43.0213 28.3753 42.993 28.3008 42.9672L28.2763 42.9605C27.9488 42.8285 27.6302 42.6942 27.3138 42.5533C27.2448 42.5309 27.1868 42.4996 27.1178 42.4727C26.743 42.3087 26.3716 42.1372 26.0038 41.9581L26.3113 42.0946C26.231 42.059 26.1522 42.0202 26.0751 41.9783C25.8657 41.8798 25.6562 41.768 25.4513 41.6628C25.2951 41.5885 25.1413 41.5094 24.9901 41.4256L25.0346 41.448C24.7829 41.3138 24.5311 41.1683 24.2771 41.0319C24.2014 40.9782 24.1145 40.9334 24.0276 40.8842C23.6501 40.6638 23.2772 40.4356 22.9091 40.1995L23.0495 40.2846C22.9552 40.2261 22.863 40.1641 22.7732 40.0989L22.7866 40.1078C22.5471 39.9601 22.3123 39.8049 22.0826 39.6424C22.0068 39.5932 21.9377 39.5395 21.8598 39.4858C21.6197 39.3213 21.3835 39.1512 21.1513 38.9757L21.2047 39.0137C21.1112 38.9376 21.0109 38.866 20.9106 38.7922C20.7146 38.6378 20.5163 38.4902 20.3202 38.3291L20.0573 38.1187C19.7771 37.8949 19.5023 37.6644 19.233 37.4274L19.2308 37.4251L18.4577 36.7204L18.2349 36.5101C18.0522 36.3243 17.865 36.1476 17.6779 35.9641L17.4618 35.7404C17.2311 35.511 17.006 35.276 16.7867 35.0356L16.7733 35.0199L16.7354 34.9886C16.4995 34.7284 16.2671 34.4651 16.0381 34.1988C15.9779 34.1294 15.9222 34.0556 15.8598 33.9818L15.3541 33.3665C15.1261 33.0789 14.9033 32.7873 14.6857 32.4917L14.5966 32.3664C9.38758 25.2604 7.50272 15.4538 11.6713 7.40806L7.99064 12.082C3.2562 18.8815 3.84216 27.7237 7.46261 34.9439C7.54505 35.1206 7.6364 35.2862 7.72551 35.454Z" fill="#1266A9"/>
<path d="M23.6713 25.6586L23.6468 25.6228L23.6267 25.596L23.6713 25.6586Z" fill="black"/>
<path d="M26.1622 28.5941L26.3627 28.7955C26.6167 29.0416 26.8773 29.281 27.1425 29.5204L27.1759 29.5495C27.4432 29.7866 27.744 30.035 28.0537 30.2766L28.1005 30.3124C28.1762 30.3639 28.2409 30.4243 28.3144 30.4758C28.6263 30.7174 28.9404 30.9478 29.2679 31.1783L29.3014 31.1984C29.4395 31.2991 29.5865 31.3909 29.7425 31.4893C29.8049 31.5296 29.8762 31.5833 29.943 31.6235C30.1792 31.7757 30.4109 31.9166 30.6493 32.0621C30.6872 32.0777 30.7206 32.0979 30.7562 32.1135C30.9567 32.2366 31.1751 32.3552 31.3845 32.4626C31.458 32.5073 31.5293 32.5409 31.6051 32.5834C31.7544 32.6572 31.9014 32.7355 32.044 32.8116L32.1153 32.8429C32.4161 32.9906 32.7235 33.1293 33.0243 33.2658C33.1001 33.2949 33.1647 33.3195 33.2293 33.3508C33.4766 33.4582 33.7283 33.5611 33.9756 33.6551C34.087 33.6931 34.1918 33.7379 34.2965 33.7715C34.5237 33.8565 34.7621 33.9348 34.9871 34.0131L35.2991 34.1138C35.6243 34.2145 35.9541 34.3465 36.2994 34.4002C53.9739 37.3222 58.0645 23.7255 58.0645 23.7255C54.3816 29.0214 47.2544 31.5452 39.6592 29.5741C39.2801 29.4781 38.9041 29.3699 38.5318 29.2497L38.6588 29.2855C38.5519 29.2564 38.4583 29.2228 38.3558 29.1915C38.1241 29.1109 37.8857 29.0326 37.6607 28.9498L37.3399 28.829C37.0904 28.7283 36.8364 28.6344 36.5935 28.527C36.5178 28.4934 36.4487 28.471 36.3908 28.4375C36.0789 28.2965 35.7647 28.1578 35.4595 28.0101L35.0005 27.7707L34.7354 27.6365C34.5304 27.5291 34.341 27.4172 34.145 27.3031C34.095 27.2795 34.0466 27.2526 34.0002 27.2226L34.0068 27.2248C33.7707 27.0771 33.5256 26.9339 33.2983 26.784C33.2226 26.7415 33.1535 26.6901 33.0822 26.6453L32.6188 26.3433C32.298 26.1195 31.9838 25.8801 31.6652 25.6474C31.5939 25.5825 31.5249 25.5288 31.4558 25.4707C28.1161 22.8462 25.4826 19.2596 24.2327 15.1987C22.916 10.9767 23.2056 6.24237 25.4804 2.40074L22.6843 6.35648C19.251 11.281 19.4448 17.8635 22.1184 23.0722C22.6063 24.0343 23.1009 24.8464 23.6468 25.6206C24.1548 26.35 24.7162 27.2047 25.3935 27.7909C25.6341 28.0661 25.8926 28.3278 26.1622 28.5941Z" fill="#1266A9"/>
<path d="M10.0204 39.1368L10.0114 39.1233L9.99585 39.1032L10.0204 39.1368ZM19.2843 37.4721L19.3065 37.4878L19.311 37.4945L19.2843 37.4721Z" fill="black"/>
<path d="M35.0406 2.07408C33.0153 5.04312 32.8215 8.73037 34.2162 12.0037C35.6978 15.4806 38.7256 18.2103 42.2547 19.5035C42.3995 19.5594 42.5399 19.6064 42.6892 19.6601L42.8852 19.7205C43.0902 19.7854 43.2974 19.8615 43.5091 19.9085C53.2698 21.7901 55.9122 14.9011 56.6229 13.8876C54.2991 17.2213 50.4024 18.0223 45.6212 16.8611C45.2055 16.7593 44.7962 16.6323 44.3958 16.4808L44.4693 16.5054C43.9711 16.3322 43.4831 16.1305 43.0078 15.9013L43.0924 15.9393C42.179 15.4918 41.3947 15.0085 40.6662 14.4537C36.3929 11.2094 33.7506 5.03193 36.54 0L35.0406 2.07408Z" fill="#1266A9"/>
</svg>
