<svg width="60" height="60" viewBox="0 0 60 60" fill="none" xmlns="http://www.w3.org/2000/svg">
<mask id="mask0_302_90" style="mask-type:luminance" maskUnits="userSpaceOnUse" x="1" y="1" width="58" height="58">
<path d="M1.83716 1.83691H58.1772V58.1769H1.83716V1.83691Z" fill="white"/>
</mask>
<g mask="url(#mask0_302_90)">
<path d="M1.83716 1.83691H58.1772V58.1769H1.83716V1.83691Z" fill="#FFD600"/>
</g>
<path d="M38.6743 44.009C39.7573 45.768 40.9341 47.4535 43.4271 47.4535C45.5212 47.4535 46.6198 46.4129 46.6198 44.973C46.6198 43.2499 45.4835 42.638 43.1799 41.6349L41.917 41.0965C38.272 39.5504 35.8479 37.6129 35.8479 33.5204C35.8479 29.7487 38.7352 26.8785 43.2471 26.8785C46.4601 26.8785 48.7685 27.9912 50.4337 30.9052L46.4993 33.4202C45.6338 31.874 44.6979 31.2652 43.2471 31.2652C41.7666 31.2652 40.8293 32.1995 40.8293 33.4202C40.8293 34.9288 41.7682 35.5393 43.9357 36.4735L45.1987 37.012C49.4946 38.8413 51.9173 40.7099 51.9173 44.9104C51.9173 49.4365 48.3427 51.917 43.5445 51.917C38.851 51.917 36.1859 49.5616 34.7023 46.646L38.6743 44.009ZM20.5421 44.1373C21.334 45.5552 22.5376 46.646 24.2684 46.646C25.9241 46.646 26.8773 45.9918 26.8773 43.4487V26.877H32.0934V44.2501C32.0934 49.5193 29.037 51.917 24.5735 51.917C20.5405 51.917 17.6296 49.1845 16.4434 46.646L20.5421 44.1373Z" fill="#000001"/>
</svg>
