<svg width="60" height="59" viewBox="0 0 60 59" fill="none" xmlns="http://www.w3.org/2000/svg">
<g clip-path="url(#clip0_102_2)">
<path d="M49.375 0H10.625C4.75697 0 0 4.79763 0 10.7158V48.2842C0 54.2024 4.75697 59 10.625 59H49.375C55.243 59 60 54.2024 60 48.2842V10.7158C60 4.79763 55.243 0 49.375 0Z" fill="#001E36"/>
<path d="M13.5104 41.3744V15.4349C13.5104 15.2458 13.591 15.1507 13.752 15.1507C14.1808 15.1507 14.5724 15.1444 15.163 15.1304C15.7529 15.1171 16.3902 15.1036 17.0748 15.0898C17.7592 15.0765 18.4837 15.0629 19.2484 15.0492C20.0131 15.0359 20.7711 15.0291 21.5225 15.0289C23.5614 15.0289 25.2787 15.286 26.6744 15.8002C27.9334 16.2297 29.0816 16.937 30.0354 17.8705C30.8439 18.6796 31.4687 19.6561 31.8667 20.7324C32.2433 21.7799 32.434 22.886 32.4303 24.0002C32.4303 26.1656 31.9339 27.9518 30.9411 29.3586C29.9416 30.7712 28.5368 31.8409 26.916 32.4235C25.2255 33.0596 23.3469 33.2754 21.281 33.2754C20.6905 33.2754 20.2745 33.2686 20.0332 33.2551C19.7918 33.2417 19.4295 33.235 18.9466 33.2348V41.3339C18.9536 41.3835 18.949 41.4341 18.9333 41.4817C18.9176 41.5292 18.8911 41.5724 18.856 41.6079C18.8208 41.6433 18.7779 41.67 18.7308 41.6859C18.6836 41.7017 18.6335 41.7063 18.5842 41.6992H13.7922C13.6042 41.6992 13.5104 41.5914 13.5104 41.3744ZM18.9465 20.022V28.4824C19.2949 28.5097 19.6169 28.5232 19.9125 28.523H21.2407C22.218 28.5197 23.1889 28.3634 24.1187 28.0596C24.9161 27.8208 25.6286 27.3558 26.1714 26.72C26.6946 26.0978 26.9562 25.2318 26.9563 24.122C26.9775 23.3368 26.7749 22.5619 26.3726 21.8893C25.9496 21.2389 25.3382 20.7358 24.6217 20.4482C23.6861 20.0815 22.6868 19.9089 21.6835 19.9408C21.0394 19.9408 20.4692 19.9476 19.9729 19.9611C19.4761 19.9751 19.134 19.9954 18.9465 20.022V20.022Z" fill="#31A8FF"/>
<path d="M47.9928 26.9441C47.2363 26.5521 46.4307 26.2653 45.5979 26.0916C44.6802 25.8793 43.742 25.7703 42.8005 25.7668C42.2912 25.7529 41.7827 25.8145 41.2911 25.9495C40.9783 26.0198 40.7002 26.1996 40.5062 26.457C40.375 26.6628 40.3052 26.9023 40.305 27.1471C40.3124 27.3845 40.3973 27.6128 40.5465 27.7966C40.7816 28.0739 41.0689 28.3016 41.3917 28.4664C41.9656 28.778 42.5569 29.0559 43.1627 29.2985C44.5136 29.7546 45.8044 30.3748 47.0066 31.1455C47.8256 31.6669 48.5033 32.3853 48.9789 33.2361C49.3788 34.0419 49.579 34.9333 49.5625 35.8342C49.5866 37.0237 49.2495 38.1923 48.5966 39.1832C47.8974 40.1891 46.9264 40.9711 45.7991 41.4361C44.5778 41.9772 43.0684 42.2479 41.271 42.2481C40.1292 42.2597 38.9893 42.1508 37.8699 41.9233C36.9879 41.7602 36.1294 41.4875 35.314 41.1114C35.226 41.0656 35.1527 40.9954 35.1028 40.9091C35.0529 40.8229 35.0284 40.724 35.0322 40.6242V36.2401C35.0274 36.1972 35.0342 36.1537 35.0519 36.1144C35.0697 36.0751 35.0977 36.0414 35.1329 36.0168C35.1675 35.9971 35.2072 35.9885 35.2467 35.9921C35.2863 35.9958 35.3238 36.0115 35.3542 36.0372C36.3172 36.6098 37.3629 37.0275 38.4535 37.2752C39.4148 37.5183 40.4008 37.6477 41.3917 37.6609C42.3307 37.6609 43.0216 37.5391 43.4646 37.2956C43.6646 37.2032 43.8338 37.0544 43.9517 36.8671C44.0696 36.6797 44.1311 36.462 44.1288 36.2401C44.1288 35.8887 43.9275 35.5505 43.525 35.2253C43.1226 34.9005 42.3041 34.5081 41.0697 34.048C39.8059 33.6044 38.6076 32.9899 37.5076 32.2213C36.7208 31.6695 36.073 30.9396 35.6158 30.0901C35.22 29.2902 35.0199 28.4063 35.0322 27.5124C35.03 26.4383 35.3225 25.3846 35.8775 24.4679C36.5102 23.4583 37.4188 22.6548 38.4938 22.154C39.6742 21.559 41.15 21.2614 42.9213 21.2609C43.9586 21.2525 44.9949 21.3272 46.0205 21.4842C46.7632 21.5792 47.4893 21.7773 48.1782 22.0728C48.2328 22.0886 48.2831 22.117 48.325 22.1558C48.3669 22.1945 48.3993 22.2425 48.4197 22.2961C48.4469 22.3952 48.4604 22.4977 48.4599 22.6005V26.7005C48.4627 26.7482 48.453 26.7958 48.4319 26.8386C48.4107 26.8813 48.3787 26.9177 48.3392 26.9441C48.2854 26.9711 48.2261 26.9851 48.166 26.9851C48.1059 26.9851 48.0466 26.9711 47.9928 26.9441V26.9441Z" fill="#31A8FF"/>
</g>
<defs>
<clipPath id="clip0_102_2">
<rect width="60" height="59" fill="white"/>
</clipPath>
</defs>
</svg>
